Le plaisir (et ses petits tracas) (1998)

Nicolas Boukhrief 

Mathieu Kassovitz
Vincent Cassel
Monica Bellucci
Julie Gayet 


   General
      Format : AVI
      Format/Info : Audio Video Interleave
      File size : 695 MiB
      Duration : 1h 35mn
      Overall bit rate : 1 017 Kbps
   Video #0
      ID : 0
      Format : MPEG-4 Visual
      Format settings, BVOP : Yes
      Format settings, QPel : No
      Format settings, GMC : No warppoints
      Format settings, Matrix : Default (H.263)
      Codec ID : DX50
      Codec ID/Hint : DivX 5
      Duration : 1h 35mn
      Bit rate : 908 Kbps
      Width : 768 pixels
      Height : 416 pixels
      Display aspect ratio : 16:9
      Frame rate : 25.000 fps
      Resolution : 24 bits
      Scan type : Progressive
      Bits/(Pixel*Frame) : 0.114
      Stream size : 620 MiB (89%)
      Title : DVD2VIDEO
      Writing library : DivX 5.0.5 (UTC 2003-04-24)
   Audio #1
      ID : 1
      Format : MPEG Audio
      Format version : Version 1
      Format profile : Layer 3
      Codec ID : 55
      Codec ID/Hint : MP3
      Duration : 1h 35mn
      Bit rate mode : Constant
      Bit rate : 96.0 Kbps
      Channel(s) : 2 channels
      Sampling rate : 48.0 KHz
      Resolution : 16 bits
      Stream size : 65.6 MiB (9%)
      Alignment : Split accross interleaves
      Interleave, duration : 24 ms (0.60 video frame)
      Interleave, preload duration : 46 ms
      Title : DVD2AUDIO00